<svg xmlns="http://www.w3.org/2000/svg" width="200.066" height="193"><path d="M0 164.837V193h114.971c-3.827-19-41.184-66.477-41.018-83.692C61.312 131.848 17 149.369 0 164.837zM138.59 125.083c9.979 8.65 49.438 23.875 56.203 31.694 6.767 7.816 5.067 26.496 5.121 35.825l-56.002.179c-.165-10.812 1.664-34.931-.165-43.579-1.831-8.65-5.157-24.119-5.157-24.119zM77.879 110.447s22.121 30.106 40.584 30.106c9.187 0 14.639-13.141 14.639-13.141l1.496-15.47s5.156-3.825 7.318-11.144c2.163-7.319 5.157-20.792 5.157-20.792s5.655-3.991 5.489-13.306c-.167-9.315-3.161-10.646-3.161-10.646s4.159-21.791 2.163-31.271C150.34 18.968 136.593 0 113.973 0 91.352 0 75.351 13.754 72.057 16.966c-6.653 6.487-2.496 40.752-2.496 40.752s-6.153-.999-6.153 4.325c0 2.58 2.356 6.878 3.614 11.268 1.337 4.668.975 9.567 5.959 9.567 0 0 1.996 15.443 5.155 18.104l-.257 9.465zM118.138 142.817c1.291-1.05 5.893-.96 8.113-.593 2.222.366 6.442 4.248 7.003 7.376.562 3.13-3.418 12.659-3.418 12.659S140.12 180 139.709 193h-18.75s2.17-20.976-1.667-30.431c0 0-6.988-8.003-6.988-9.923 0-1.917 4.544-8.779 5.834-9.829z"/></svg>